<svg xmlns="http://www.w3.org/2000/svg" width="24" height="21.666" viewBox="0 0 24 21.666">
  <g id="Group_1693" data-name="Group 1693" transform="translate(933.967 122.142)">
    <path id="Path_249" data-name="Path 249" d="M-901.02-92.506a4.881,4.881,0,0,0-4.875,4.875,4.881,4.881,0,0,0,4.875,4.875,4.881,4.881,0,0,0,4.875-4.875A4.881,4.881,0,0,0-901.02-92.506Z" transform="translate(-20.947 -22.226)"/>
    <path id="Path_250" data-name="Path 250" d="M-899.042-103.4a4.806,4.806,0,0,1-3.65-1.64l-1.012-1.17a2.521,2.521,0,0,0-1.916-.861h-3.349a2.522,2.522,0,0,0-1.915.861l-1.012,1.171a4.806,4.806,0,0,1-3.649,1.64,3.665,3.665,0,0,0-3.749,3.565v10.864a3.665,3.665,0,0,0,3.749,3.565h16.5a3.664,3.664,0,0,0,3.749-3.565V-99.832A3.664,3.664,0,0,0-899.042-103.4Zm-8.251,14.407a6.26,6.26,0,0,1-6.4-6.089,6.26,6.26,0,0,1,6.4-6.09,6.26,6.26,0,0,1,6.4,6.09A6.26,6.26,0,0,1-907.293-88.99Z" transform="translate(-14.674 -15.074)"/>
  </g>
</svg>
